# Blender v2.79 (sub 0) OBJ File: ''
# www.blender.org
mtllib elevators.mtl
o Cube.001
v 0.929019 -0.023614 -2.319163
v -1.085217 -0.031654 -2.453459
v 0.881626 -0.031654 -2.453459
v -1.085217 0.015373 -2.352027
v 0.929018 -0.015795 -2.312929
v 0.929019 0.015373 -2.352026
v -1.085217 -0.023614 -2.319163
v -1.085217 -0.015794 -2.312930
vt 1.000000 0.000000
vt 0.000000 1.000000
vt 0.000000 0.000000
vt 1.000000 0.000000
vt 0.000000 1.000000
vt 0.000000 0.000000
vt 1.000000 0.000000
vt 0.000000 1.000000
vt 1.000000 0.000000
vt 0.000000 1.000000
vt 0.000000 0.000000
vt 1.000000 0.000000
vt 0.000000 0.000000
vt 1.000000 0.000000
vt 0.000000 1.000000
vt 1.000000 1.000000
vt 1.000000 1.000000
vt 1.000000 1.000000
vt 1.000000 1.000000
vt 1.000000 1.000000
vn 0.0000 -0.9982 0.0598
vn -0.0000 0.7819 0.6233
vn -0.0000 0.7819 0.6234
vn 0.9308 -0.2356 -0.2795
vn 0.9854 -0.1097 -0.1301
vn 0.9155 -0.2593 -0.3076
vn -0.0000 -0.6234 0.7819
vn -0.0000 -0.6233 0.7820
vn -1.0000 0.0000 0.0000
vn 0.0000 0.9072 -0.4206
vn 1.0000 0.0001 0.0001
usemtl Material.001
s 1
f 1/1/1 2/2/1 3/3/1
f 4/4/2 5/5/3 6/6/3
f 6/7/4 1/8/5 3/3/6
f 5/9/7 7/10/8 1/11/7
f 8/12/9 2/2/9 7/13/9
f 3/14/10 4/15/10 6/6/10
f 1/1/1 7/16/1 2/2/1
f 4/4/2 8/17/2 5/5/3
f 6/7/4 5/18/11 1/8/5
f 5/9/7 8/17/8 7/10/8
f 8/12/9 4/19/9 2/2/9
f 3/14/10 2/20/10 4/15/10
