# Blender v2.79 (sub 0) OBJ File: ''
# www.blender.org
mtllib wing1.mtl
o Cube.001
v 2.091732 0.782457 0.016812
v 0.391732 0.692457 -0.083188
v 2.051732 0.692457 -0.083188
v 0.391732 0.792457 -0.033188
v 2.091731 0.792457 0.016813
v 2.091732 0.792457 -0.033187
v 0.391732 0.782457 0.016812
v 0.391732 0.792457 0.016812
vt 1.000000 0.000000
vt 0.000000 1.000000
vt 0.000000 0.000000
vt 1.000000 0.000000
vt 0.000000 1.000000
vt 0.000000 0.000000
vt 1.000000 0.000000
vt 0.000000 1.000000
vt 1.000000 0.000000
vt 0.000000 1.000000
vt 0.000000 0.000000
vt 1.000000 0.000000
vt 0.000000 0.000000
vt 1.000000 0.000000
vt 0.000000 1.000000
vt 1.000000 1.000000
vt 1.000000 1.000000
vt 1.000000 1.000000
vt 1.000000 1.000000
vt 1.000000 1.000000
vn 0.0000 -0.7433 0.6690
vn -0.0000 1.0000 0.0000
vn 0.9489 -0.3093 -0.0619
vn 0.9894 -0.1424 -0.0285
vn 0.9376 -0.3409 -0.0682
vn -0.0000 -0.0001 1.0000
vn -0.0000 -0.0000 1.0000
vn -1.0000 0.0000 0.0000
vn 0.0000 0.4472 -0.8944
vn 1.0000 0.0001 0.0000
usemtl Material.001
s 1
f 1/1/1 2/2/1 3/3/1
f 4/4/2 5/5/2 6/6/2
f 6/7/3 1/8/4 3/3/5
f 5/9/6 7/10/7 1/11/6
f 8/12/8 2/2/8 7/13/8
f 3/14/9 4/15/9 6/6/9
f 1/1/1 7/16/1 2/2/1
f 4/4/2 8/17/2 5/5/2
f 6/7/3 5/18/10 1/8/4
f 5/9/6 8/17/7 7/10/7
f 8/12/8 4/19/8 2/2/8
f 3/14/9 2/20/9 4/15/9
